<svg xmlns="http://www.w3.org/2000/svg" viewBox="0 0 640 48" width="640" height="48" shape-rendering="crispEdges">
  <title>walking paw print trail</title>
  <g fill="#E24E7A">
    <g id="paw0" opacity="0">
      <animate attributeName="opacity" values="0;1;1;0" keyTimes="0;0.15;0.6;1" begin="0s" dur="2.4s" repeatCount="indefinite" />
      <rect x="22" y="20" width="4" height="4" /><rect x="28" y="18" width="4" height="4" /><rect x="34" y="20" width="4" height="4" />
      <rect x="25" y="26" width="14" height="8" />
    </g>
    <g id="paw1" opacity="0">
      <animate attributeName="opacity" values="0;1;1;0" keyTimes="0;0.15;0.6;1" begin="0.3s" dur="2.4s" repeatCount="indefinite" />
      <rect x="98" y="8" width="4" height="4" /><rect x="104" y="6" width="4" height="4" /><rect x="110" y="8" width="4" height="4" />
      <rect x="101" y="14" width="14" height="8" />
    </g>
    <g id="paw2" opacity="0">
      <animate attributeName="opacity" values="0;1;1;0" keyTimes="0;0.15;0.6;1" begin="0.6s" dur="2.4s" repeatCount="indefinite" />
      <rect x="174" y="20" width="4" height="4" /><rect x="180" y="18" width="4" height="4" /><rect x="186" y="20" width="4" height="4" />
      <rect x="177" y="26" width="14" height="8" />
    </g>
    <g id="paw3" opacity="0">
      <animate attributeName="opacity" values="0;1;1;0" keyTimes="0;0.15;0.6;1" begin="0.9s" dur="2.4s" repeatCount="indefinite" />
      <rect x="250" y="8" width="4" height="4" /><rect x="256" y="6" width="4" height="4" /><rect x="262" y="8" width="4" height="4" />
      <rect x="253" y="14" width="14" height="8" />
    </g>
    <g id="paw4" opacity="0">
      <animate attributeName="opacity" values="0;1;1;0" keyTimes="0;0.15;0.6;1" begin="1.2s" dur="2.4s" repeatCount="indefinite" />
      <rect x="326" y="20" width="4" height="4" /><rect x="332" y="18" width="4" height="4" /><rect x="338" y="20" width="4" height="4" />
      <rect x="329" y="26" width="14" height="8" />
    </g>
    <g id="paw5" opacity="0">
      <animate attributeName="opacity" values="0;1;1;0" keyTimes="0;0.15;0.6;1" begin="1.5s" dur="2.4s" repeatCount="indefinite" />
      <rect x="402" y="8" width="4" height="4" /><rect x="408" y="6" width="4" height="4" /><rect x="414" y="8" width="4" height="4" />
      <rect x="405" y="14" width="14" height="8" />
    </g>
    <g id="paw6" opacity="0">
      <animate attributeName="opacity" values="0;1;1;0" keyTimes="0;0.15;0.6;1" begin="1.8s" dur="2.4s" repeatCount="indefinite" />
      <rect x="478" y="20" width="4" height="4" /><rect x="484" y="18" width="4" height="4" /><rect x="490" y="20" width="4" height="4" />
      <rect x="481" y="26" width="14" height="8" />
    </g>
    <g id="paw7" opacity="0">
      <animate attributeName="opacity" values="0;1;1;0" keyTimes="0;0.15;0.6;1" begin="2.1s" dur="2.4s" repeatCount="indefinite" />
      <rect x="554" y="8" width="4" height="4" /><rect x="560" y="6" width="4" height="4" /><rect x="566" y="8" width="4" height="4" />
      <rect x="557" y="14" width="14" height="8" />
    </g>
  </g>
</svg>
