<svg width="1200" height="420" viewBox="0 0 1200 420" fill="none" xmlns="http://www.w3.org/2000/svg">
  <defs>
    <linearGradient id="paper" x1="0" y1="0" x2="1200" y2="420" gradientUnits="userSpaceOnUse">
      <stop stop-color="#FFF7E8"/>
      <stop offset="0.52" stop-color="#F6E6C8"/>
      <stop offset="1" stop-color="#E9D0A9"/>
    </linearGradient>
    <radialGradient id="wine" cx="0" cy="0" r="1" gradientUnits="userSpaceOnUse" gradientTransform="translate(600 210) rotate(90) scale(330 680)">
      <stop stop-color="#7A1735"/>
      <stop offset="0.68" stop-color="#3A071A"/>
      <stop offset="1" stop-color="#18040C"/>
    </radialGradient>
    <linearGradient id="gold" x1="154" y1="0" x2="1046" y2="0" gradientUnits="userSpaceOnUse">
      <stop stop-color="#9A6A2F"/>
      <stop offset="0.5" stop-color="#F1CF86"/>
      <stop offset="1" stop-color="#9A6A2F"/>
    </linearGradient>
    <filter id="softShadow" x="-10%" y="-20%" width="120%" height="140%">
      <feDropShadow dx="0" dy="18" stdDeviation="18" flood-color="#23040F" flood-opacity="0.35"/>
    </filter>
    <pattern id="grain" width="60" height="60" patternUnits="userSpaceOnUse">
      <path d="M8 18C18 11 25 12 36 18M18 42C28 35 39 36 49 43" stroke="#F5DDAE" stroke-opacity="0.22" stroke-width="1"/>
      <circle cx="47" cy="16" r="1.2" fill="#F8E7C4" fill-opacity="0.25"/>
      <circle cx="14" cy="50" r="1" fill="#E7C585" fill-opacity="0.25"/>
    </pattern>
  </defs>

  <rect width="1200" height="420" rx="28" fill="#210611"/>
  <rect x="26" y="24" width="1148" height="372" rx="24" fill="url(#paper)" filter="url(#softShadow)"/>
  <rect x="48" y="46" width="1104" height="328" rx="18" fill="url(#wine)"/>
  <rect x="66" y="64" width="1068" height="292" rx="12" stroke="url(#gold)" stroke-width="2"/>
  <rect x="84" y="82" width="1032" height="256" rx="8" stroke="#F4D58D" stroke-opacity="0.36" stroke-width="1"/>
  <rect x="48" y="46" width="1104" height="328" rx="18" fill="url(#grain)"/>

  <g stroke="url(#gold)" stroke-width="1.5" stroke-linecap="round">
    <path d="M162 134H392"/>
    <path d="M808 134H1038"/>
    <path d="M162 286H392"/>
    <path d="M808 286H1038"/>
  </g>

  <g fill="#F4D58D" opacity="0.95">
    <path d="M596 116C596 99 604 88 618 84C632 88 640 99 640 116C640 131 631 142 618 151C605 142 596 131 596 116Z"/>
    <path d="M560 118C560 103 568 93 581 90C594 94 601 104 601 118C601 132 593 142 581 150C568 142 560 132 560 118Z" opacity="0.7"/>
    <path d="M636 118C636 103 644 93 657 90C670 94 677 104 677 118C677 132 669 142 657 150C644 142 636 132 636 118Z" opacity="0.7"/>
  </g>

  <text x="600" y="188" text-anchor="middle" fill="#FFF8E9"
        font-family="Georgia, 'Times New Roman', serif"
        font-weight="700" font-size="64" letter-spacing="5">XIYU CAO</text>
  <text x="600" y="222" text-anchor="middle" fill="#F4D58D"
        font-family="Georgia, 'Times New Roman', serif"
        font-size="18" letter-spacing="4">SOFTWARE DEVELOPER SELECTION</text>

  <g fill="#F8E7C4" font-family="Georgia, 'Times New Roman', serif" font-size="16" letter-spacing="2">
    <text x="600" y="258" text-anchor="middle">MOBILE &amp; BACKEND · CLOUD / DEVOPS · COMPUTER VISION · QUALITY ENGINEERING</text>
  </g>

  <g fill="#D9AF63" font-family="ui-monospace, SFMono-Regular, Menlo, Consolas, monospace" font-size="12" letter-spacing="2">
    <text x="94" y="112">VINTAGE 2026</text>
    <text x="1006" y="112">MONASH IT</text>
    <text x="94" y="326">KOTLIN / JAVA / PYTHON</text>
    <text x="886" y="326">FASTAPI / GCP / YOLO</text>
  </g>
</svg>
