<svg width="1200" height="340" viewBox="0 0 1200 340" fill="none" xmlns="http://www.w3.org/2000/svg">
  <defs>
    <linearGradient id="bg" x1="0" y1="0" x2="1200" y2="340" gradientUnits="userSpaceOnUse">
      <stop stop-color="#07111F"/>
      <stop offset="0.52" stop-color="#101B35"/>
      <stop offset="1" stop-color="#17122D"/>
    </linearGradient>
    <linearGradient id="signal" x1="154" y1="232" x2="1054" y2="232" gradientUnits="userSpaceOnUse">
      <stop stop-color="#5EEAD4" stop-opacity="0"/>
      <stop offset="0.18" stop-color="#5EEAD4"/>
      <stop offset="0.52" stop-color="#7DD3FC"/>
      <stop offset="0.82" stop-color="#C084FC"/>
      <stop offset="1" stop-color="#C084FC" stop-opacity="0"/>
    </linearGradient>
    <filter id="glow" x="-20%" y="-100%" width="140%" height="300%">
      <feGaussianBlur stdDeviation="7" result="blur"/>
      <feMerge><feMergeNode in="blur"/><feMergeNode in="SourceGraphic"/></feMerge>
    </filter>
    <pattern id="grid" width="32" height="32" patternUnits="userSpaceOnUse">
      <path d="M32 0H0V32" stroke="#A5B4FC" stroke-opacity="0.07"/>
    </pattern>
  </defs>

  <rect width="1200" height="340" rx="24" fill="url(#bg)"/>
  <rect width="1200" height="340" rx="24" fill="url(#grid)"/>
  <circle cx="1040" cy="62" r="120" fill="#A855F7" fill-opacity="0.08"/>
  <circle cx="114" cy="286" r="150" fill="#14B8A6" fill-opacity="0.07"/>

  <g opacity="0.75" font-family="ui-monospace, SFMono-Regular, Menlo, Consolas, monospace" font-size="14">
    <circle cx="52" cy="42" r="6" fill="#FB7185"/>
    <circle cx="74" cy="42" r="6" fill="#FBBF24"/>
    <circle cx="96" cy="42" r="6" fill="#34D399"/>
    <text x="1090" y="47" fill="#94A3B8">ONLINE</text>
  </g>

  <text x="600" y="132" text-anchor="middle" fill="#F8FAFC"
        font-family="ui-monospace, SFMono-Regular, Menlo, Consolas, monospace"
        font-weight="700" font-size="58" letter-spacing="8">SIGNAL LAB</text>
  <text x="600" y="174" text-anchor="middle" fill="#A5B4FC"
        font-family="ui-monospace, SFMono-Regular, Menlo, Consolas, monospace"
        font-size="17" letter-spacing="3">STRANGE IDEAS → WORKING PROTOTYPES</text>

  <path d="M110 244H190L210 226L231 260L257 202L285 275L315 229L337 244H424L446 228L464 253L489 214L516 266L541 237L558 244H638L657 224L680 261L706 205L731 270L755 232L775 244H864L884 226L904 256L930 216L955 266L981 235L1001 244H1090"
        stroke="url(#signal)" stroke-width="3" stroke-linecap="round" stroke-linejoin="round" filter="url(#glow)"/>

  <g fill="#94A3B8" font-family="ui-monospace, SFMono-Regular, Menlo, Consolas, monospace" font-size="13">
    <text x="48" y="312">CH 01 / CURIOSITY</text>
    <text x="967" y="312">NOISE: ACCEPTABLE</text>
  </g>
</svg>
